<svg xmlns:dc="http://purl.org/dc/elements/1.1/"
	xmlns:cc="http://creativecommons.org/ns#"
	xmlns:rdf="http://www.w3.org/1999/02/22-rdf-syntax-ns#"
	xmlns:svg="http://www.w3.org/2000/svg"
	xmlns="http://www.w3.org/2000/svg"
	xmlns:sodipodi="http://sodipodi.sourceforge.net/DTD/sodipodi-0.dtd"
	xmlns:inkscape="http://www.inkscape.org/namespaces/inkscape" viewBox="0 0 24 30" version="1.1" x="0px" y="0px">
	<g transform="translate(0,-1028.3622)">
		<path style="" d="M 5.0722656 0 C 2.2623758 0 0 2.2623758 0 5.0722656 L 0 18.927734 C 0 21.737624 2.2623758 24 5.0722656 24 L 18.927734 24 C 21.737624 24 24 21.737624 24 18.927734 L 24 5.0722656 C 24 2.2623758 21.737624 0 18.927734 0 L 5.0722656 0 z M 5 7 L 13 7 L 13 8 L 5 8 L 5 7 z M 14 7 L 15 7 L 15 8 L 14 8 L 14 7 z M 16 7 L 17 7 L 17 8 L 16 8 L 16 7 z M 18 7 L 19 7 L 19 8 L 18 8 L 18 7 z M 5 9 L 19 9 L 19 17 L 5 17 L 5 9 z M 13.044922 9.7773438 L 10.060547 15.777344 L 10.955078 16.222656 L 13.939453 10.222656 L 13.044922 9.7773438 z M 8.6464844 10.646484 L 6.2929688 13 L 8.6464844 15.353516 L 9.3535156 14.646484 L 7.7070312 13 L 9.3535156 11.353516 L 8.6464844 10.646484 z M 15.353516 10.646484 L 14.646484 11.353516 L 16.292969 13 L 14.646484 14.646484 L 15.353516 15.353516 L 17.707031 13 L 15.353516 10.646484 z " transform="translate(0,1028.3622)" fill="#000000" fill-opacity="1" stroke="none"/>
	</g>
</svg>
